<svg xmlns="http://www.w3.org/2000/svg" viewBox="0 0 330 56">

  <!-- Nube pequeña — desplazada +12px para que no se corte -->
  <path
    d="M 20,46
       C 14,46 10,40 11,33
       C 12,27 17,23 23,22
       C 22,14 29,8 38,7
       C 43,6 48,9 51,14
       C 54,9 59,6 65,6
       C 73,6 79,13 79,21
       C 79,22 79,23 78.5,23.5
       C 84,24.5 88,29 88,35
       C 89,42 84,47 77,48
       L 20,46 Z"
    fill="none"
    stroke="#8B5CF6"
    stroke-width="5"
    stroke-linecap="round"
    stroke-linejoin="round"
  />

  <!-- Flechas >> -->
  <g fill="none" stroke="#8B5CF6" stroke-width="4" stroke-linecap="round" stroke-linejoin="round">
    <polyline points="35,23 42,31 35,39" />
    <polyline points="44,23 51,31 44,39" />
    <polyline points="53,23 60,31 53,39" />
  </g>

  <!-- "Cloud" en blanco -->
  <text x="102" y="40"
    font-family="'Trebuchet MS', 'Segoe UI', Arial, sans-serif"
    font-size="30" font-weight="700" fill="#ffffff" letter-spacing="-0.5">
    Cloud
  </text>

  <!-- "Coders" en violeta -->
  <text x="195" y="40"
    font-family="'Trebuchet MS', 'Segoe UI', Arial, sans-serif"
    font-size="30" font-weight="700" fill="#8B5CF6" letter-spacing="-0.5">
    Coders
  </text>
</svg>
